<svg xmlns="http://www.w3.org/2000/svg" viewBox="0 0 427 176.2"><path fill="#fff" d="M19.6 48.1c-2.9-.6-5.8 1.2-6.4 4.1-4.6 21.3 9 42.4 30.3 47 2.7.6 5.5.9 8.3.9h13.9l42.1 36.3c10.4 8.9 25.5 9.3 36.4 1 2.4-1.8 2.8-5.2 1-7.6s-5.2-2.8-7.6-1c-6.8 5.2-16.3 4.9-22.8-.6l-32.6-28.1h92.8l-4.3 3.3c-2.4 1.8-2.8 5.2-1 7.6s5.2 2.8 7.6 1l15.5-11.9h45.7c3 0 5.4-2.4 5.4-5.4s-2.4-5.4-5.4-5.4h-186.6c-15.9 0-28.7-12.9-28.8-28.8 0-2 .2-4.1.6-6 .7-2.9-1.1-5.8-4.1-6.4zm381.3 92.5v-26.6c0-3-2.4-5.4-5.4-5.4s-5.4 2.4-5.4 5.4v26.6c0 13.7-11.1 24.8-24.8 24.8h-303.6c-13.7 0-24.8-11.1-24.8-24.8v-26.6c0-3-2.4-5.4-5.4-5.4s-5.4 2.4-5.4 5.4v26.6c0 19.7 15.9 35.6 35.6 35.6h303.6c19.7 0 35.6-15.9 35.6-35.6zm-244.7-26l-2.1 1.6c-2.4 1.8-2.9 5.1-1.2 7.5s5.1 2.9 7.5 1.2l.2-.2 2.1-1.6c2.4-1.8 2.8-5.2 1-7.6-1.7-2.3-5.1-2.7-7.5-.9zm207.1-54.2c12.3-2.1 19.9-7.6 26.9-12.6 2.5-1.8 5-3.6 7.6-5.1 9.9 12.4 7.8 30.5-4.7 40.4-3.5 2.8-7.7 4.7-12.1 5.6-2.9.6-4.8 3.4-4.2 6.4.5 2.5 2.7 4.3 5.2 4.3.4 0 .7 0 1.1-.1 21.4-4.4 35.2-25.3 30.8-46.7-1.1-5.2-3.1-10.1-6.1-14.4 1.3-.4 2.7-.7 4.1-1 10.2-2 16.8-11.9 14.8-22-1.7-8.8-9.4-15.2-18.4-15.2h-389.5c-10.4 0-18.8 8.4-18.8 18.8 0 9 6.4 16.7 15.2 18.4 4.8.9 9.4 2.6 13.6 5.1 2.8 1.7 5.4 3.5 8.2 5.5 8.8 6.3 18.8 13.5 37.8 13.5s29-7.2 37.8-13.5c8.6-6.2 15.9-11.5 31.5-11.5s23 5.3 31.6 11.5c8.6 6.1 18.3 13.1 36.3 13.5h1.7c18.1-.4 28.1-7.3 37-13.4s16.7-11.5 32.3-11.5 23 5.3 31.5 11.5c8.8 6.3 18.8 13.5 37.8 13.5h.2v76.5c0 2.3-.9 4.5-2.6 6.1-1.6 1.6-3.9 2.5-6.2 2.5-4.8-.2-8.5-4.3-8.4-9.1v-8.8c0-9.7-7.9-17.6-17.6-17.6h-1.5c-9.7 0-17.6 7.9-17.6 17.6 0 8.2-6.6 14.9-14.9 14.9s-14.9-6.6-14.9-14.9v-68.6c0-3-2.4-5.4-5.4-5.4s-5.4 2.4-5.4 5.4v68.6c0 14.2 11.5 25.6 25.6 25.6s25.6-11.5 25.6-25.6c0-3.8 3.1-6.9 6.9-6.9h1.5c3.8 0 6.9 3.1 6.9 6.9v8.8c0 10.8 8.5 19.6 19 19.8h.4c10.7 0 19.4-8.7 19.4-19.4v-77.4zm-344.5-49.6h389.4c4.4 0 8 3.6 8 8 0 3.8-2.7 7.1-6.4 7.8-6 1.1-11.8 3.3-17 6.4-3.3 1.9-6.2 4-9 6.1-8.5 6.1-15.9 11.5-31.5 11.5s-23-5.3-31.5-11.5c-8.8-6.3-18.8-13.5-37.8-13.5s-29.3 7.1-38.4 13.4c-8.7 6-16.2 11.2-31.1 11.5h-1c-14.8-.3-22-5.4-30.3-11.4-8.8-6.3-18.8-13.5-37.9-13.5s-29 7.2-37.8 13.5c-8.6 6.1-15.9 11.5-31.5 11.5s-23-5.3-31.5-11.5c-2.8-2-5.8-4.1-9-6.1-5.2-3.1-11-5.3-17-6.4-3.7-.7-6.4-4-6.4-7.8-.3-4.4 3.3-8 7.7-8z"/></svg>