<svg xmlns="http://www.w3.org/2000/svg" viewBox="0 0 427 136.8"><path fill="#fff" d="M44.1 76c.8.4 1.7.7 2.6.7 2 0 3.8-1.1 4.7-2.8l1.5-2.7c1.5-2.6.6-5.9-2-7.4s-5.9-.6-7.4 2l-1.7 3c-1.2 2.5-.3 5.8 2.3 7.2zm174.3-33.3c3 0 5.4-2.4 5.4-5.4s-2.4-5.4-5.4-5.4h-5.9c-3 0-5.4 2.4-5.4 5.4s2.4 5.4 5.4 5.4h5.9zm-34.6 51.7c3 0 5.4-2.4 5.4-5.4s-2.4-5.4-5.4-5.4h-5.9c-3 0-5.4 2.4-5.4 5.4s2.4 5.4 5.4 5.4h5.9zm69.1 0c3 0 5.4-2.4 5.4-5.4s-2.4-5.4-5.4-5.4h-5.9c-3 0-5.4 2.4-5.4 5.4s2.4 5.4 5.4 5.4h5.9zm34.5-51.7c3 0 5.4-2.4 5.4-5.4s-2.4-5.4-5.4-5.4h-5.9c-3 0-5.4 2.4-5.4 5.4s2.4 5.4 5.4 5.4h5.9zm34.6 51.7c3 0 5.4-2.4 5.4-5.4s-2.4-5.4-5.4-5.4h-5.9c-3 0-5.4 2.4-5.4 5.4s2.4 5.4 5.4 5.4h5.9zm-172.8-51.7c3 0 5.4-2.4 5.4-5.4s-2.4-5.4-5.4-5.4h-5.9c-3 0-5.4 2.4-5.4 5.4s2.4 5.4 5.4 5.4h5.9zm-34.7 51.7c3 0 5.4-2.4 5.4-5.4s-2.4-5.4-5.4-5.4h-5.9c-3 0-5.4 2.4-5.4 5.4s2.4 5.4 5.4 5.4h5.9zm289.7 42.4h-378v-10.8c.5-11.4 2.4-22.7 5.8-33.6l.1-.3c1-2.8 4-4.3 6.8-3.4 2.8 1 4.3 4 3.4 6.8-3.1 9.9-4.8 20.1-5.3 30.4h356.4c-3-64.3-56-115-120.4-115.1h-115.6c-35.2 0-68.6 15.3-91.5 42-.1.1-.2.3-.4.4-2 2.2-5.5 2.3-7.6.2-2.2-2-2.3-5.5-.2-7.6 24.9-29.1 61.3-45.8 99.6-45.8h115.7c70.6 0 128.3 56 131.2 125.9v10.9z"/></svg>