<svg xmlns="http://www.w3.org/2000/svg" style="display: none;">
  <symbol id="svg-dice" viewBox="0 0 512 512" enable-background="new 0 0 512 512">
    <path class="svg__dice" d="M85.338 221.867c-18.825 0-34.133 15.317-34.133 34.133 0 18.825 15.309 34.133 34.133 34.133 18.825 0 34.133-15.309 34.133-34.133 0-18.816-15.309-34.133-34.133-34.133zm0 51.2c-9.412 0-17.067-7.646-17.067-17.067 0-9.412 7.654-17.067 17.067-17.067 9.404 0 17.067 7.654 17.067 17.067 0 9.421-7.663 17.067-17.067 17.067zM346.082 358.63c-14.293 0-27.187 9.02-32.085 22.468-6.434 17.681 2.714 37.299 20.395 43.742 3.772 1.365 7.697 2.065 11.682 2.065 14.293 0 27.187-9.028 32.068-22.468 6.434-17.681-2.714-37.308-20.395-43.742-3.771-1.373-7.697-2.065-11.665-2.065zm16.026 39.971c-3.123 8.593-13.167 13.355-21.88 10.206-8.841-3.226-13.414-13.039-10.197-21.871 2.449-6.724 8.9-11.238 16.051-11.238 1.98 0 3.934.35 5.828 1.033 8.841 3.216 13.415 13.029 10.198 21.87zM392.768 298.607c14.302 0 27.196-9.028 32.077-22.468 6.434-17.681-2.714-37.308-20.403-43.75-3.763-1.365-7.689-2.057-11.665-2.057-14.302 0-27.196 9.028-32.085 22.468-6.434 17.681 2.722 37.308 20.403 43.742 3.763 1.365 7.688 2.065 11.673 2.065zm-16.042-39.979c2.449-6.716 8.9-11.23 16.051-11.23 1.988 0 3.942.35 5.837 1.033 8.841 3.217 13.414 13.03 10.197 21.871-3.123 8.593-13.167 13.38-21.879 10.197-8.841-3.217-13.423-13.022-10.206-21.871zM341.338 298.667v-256c0-23.518-19.14-42.667-42.667-42.667h-256c-23.526 0-42.666 19.149-42.666 42.667v256c0 23.526 19.14 42.667 42.667 42.667h256c23.526-.001 42.666-19.141 42.666-42.667zm-324.267 0v-256c0-14.114 11.486-25.6 25.6-25.6h256c14.114 0 25.6 11.486 25.6 25.6v256c0 14.123-11.486 25.6-25.6 25.6h-256c-14.114 0-25.6-11.478-25.6-25.6zM85.338 51.2c-18.825 0-34.133 15.317-34.133 34.133 0 18.825 15.309 34.133 34.133 34.133 18.825 0 34.133-15.309 34.133-34.133 0-18.816-15.309-34.133-34.133-34.133zm0 51.2c-9.412 0-17.067-7.646-17.067-17.067 0-9.412 7.654-17.067 17.067-17.067 9.404 0 17.067 7.654 17.067 17.067 0 9.421-7.663 17.067-17.067 17.067zM483.921 188.672l-122.726-44.672c-4.42-1.596-9.327.674-10.931 5.103-1.621 4.429.666 9.327 5.094 10.94l122.726 44.663c13.261 4.83 20.13 19.55 15.3 32.811l-87.56 240.563c-4.821 13.269-19.55 20.13-32.811 15.309l-240.563-87.561c-13.252-4.83-20.122-19.55-15.3-32.819l3.994-10.974c1.621-4.429-.674-9.327-5.094-10.931-4.463-1.604-9.327.674-10.94 5.103l-3.994 10.965c-8.047 22.11 3.396 46.643 25.506 54.69l240.555 87.561c4.804 1.741 9.711 2.577 14.541 2.577 17.434-.008 33.843-10.778 40.141-28.083l87.561-240.563c8.046-22.11-3.389-46.635-25.499-54.682zM232.632 354.287c-4.087 7.407-12.757 10.701-20.702 7.825-4.83-1.758-7.561-5.231-9.003-7.842-2.278-4.122-7.475-5.606-11.597-3.337-4.13 2.287-5.615 7.475-3.337 11.605 4.036 7.279 10.462 12.826 18.099 15.607 3.866 1.408 7.817 2.082 11.716 2.082 12.092 0 23.578-6.494 29.773-17.707 2.27-4.122.768-9.31-3.354-11.588-4.137-2.277-9.325-.775-11.595 3.355zM170.671 136.533c-18.825 0-34.133 15.317-34.133 34.133 0 18.825 15.309 34.133 34.133 34.133s34.133-15.309 34.133-34.133c.001-18.815-15.308-34.133-34.133-34.133zm0 51.2c-9.412 0-17.067-7.646-17.067-17.067 0-9.412 7.654-17.067 17.067-17.067 9.404 0 17.067 7.654 17.067 17.067 0 9.421-7.663 17.067-17.067 17.067zM256.005 221.867c-18.825 0-34.133 15.317-34.133 34.133 0 18.825 15.309 34.133 34.133 34.133s34.133-15.309 34.133-34.133c0-18.816-15.309-34.133-34.133-34.133zm0 51.2c-9.412 0-17.067-7.646-17.067-17.067 0-9.412 7.654-17.067 17.067-17.067 9.404 0 17.067 7.654 17.067 17.067-.001 9.421-7.664 17.067-17.067 17.067zM256.005 51.2c-18.825 0-34.133 15.317-34.133 34.133 0 18.825 15.309 34.133 34.133 34.133s34.133-15.309 34.133-34.133c0-18.816-15.309-34.133-34.133-34.133zm0 51.2c-9.412 0-17.067-7.646-17.067-17.067 0-9.412 7.654-17.067 17.067-17.067 9.404 0 17.067 7.654 17.067 17.067-.001 9.421-7.664 17.067-17.067 17.067z"/>
  </symbol>

  <symbol id="svg-burger" viewBox="0 0 500 500" enable-background="new 0 0 500 500">
    <path class="svg__burger-upper" d="M22.9,350c-3.4-0.7-6.8,1.4-7.5,4.8c-5.4,24.9,10.5,49.6,35.5,55c3.2,0.7,6.4,1.1,9.7,1.1h16.3l49.3,42.5
	c12.2,10.4,29.9,10.9,42.6,1.2c2.8-2.1,3.3-6.1,1.2-8.9c-2.1-2.8-6.1-3.3-8.9-1.2c-8,6.1-19.1,5.7-26.7-0.7l-38.2-32.9h108.7l-5,3.9
	c-2.8,2.1-3.3,6.1-1.2,8.9s6.1,3.3,8.9,1.2l18.1-13.9h53.5c3.5,0,6.3-2.8,6.3-6.3c0-3.5-2.8-6.3-6.3-6.3H60.8
	c-18.6,0-33.6-15.1-33.7-33.7c0-2.3,0.2-4.8,0.7-7C28.6,354.1,26.5,350.7,22.9,350L22.9,350z M469.4,458.3v-31.1
	c0-3.5-2.8-6.3-6.3-6.3s-6.3,2.8-6.3,6.3v31.1c0,16-13,29-29,29H72.2c-16,0-29-13-29-29v-31.1c0-3.5-2.8-6.3-6.3-6.3
	c-3.5,0-6.3,2.8-6.3,6.3v31.1c0,23.1,18.6,41.7,41.7,41.7h355.5C450.8,500,469.4,481.4,469.4,458.3L469.4,458.3z M182.9,427.9
	l-2.5,1.9c-2.8,2.1-3.4,6-1.4,8.8c2,2.8,6,3.4,8.8,1.4l0.2-0.2l2.5-1.9c2.8-2.1,3.3-6.1,1.2-8.9
	C189.7,426.2,185.7,425.8,182.9,427.9z M425.4,364.4c14.4-2.5,23.3-8.9,31.5-14.8c2.9-2.1,5.9-4.2,8.9-6
	c11.6,14.5,9.1,35.7-5.5,47.3c-4.1,3.3-9,5.5-14.2,6.6c-3.4,0.7-5.6,4-4.9,7.5c0.6,2.9,3.2,5,6.1,5c0.5,0,0.8,0,1.3-0.1
	c25.1-5.2,41.2-29.6,36.1-54.7c-1.3-6.1-3.6-11.8-7.1-16.9c1.5-0.5,3.2-0.8,4.8-1.2c11.9-2.3,19.7-13.9,17.3-25.8
	c-2-10.3-11-17.8-21.5-17.8H22c-12.2,0-22,9.8-22,22c0,10.5,7.5,19.6,17.8,21.5c5.6,1.1,11,3,15.9,6c3.3,2,6.3,4.1,9.6,6.4
	c10.3,7.4,22,15.8,44.3,15.8s34-8.4,44.3-15.8c10.1-7.3,18.6-13.5,36.9-13.5s26.9,6.2,37,13.5c10.1,7.1,21.4,15.3,42.5,15.8h2
	c21.2-0.5,32.9-8.5,43.3-15.7c10.4-7.1,19.6-13.5,37.8-13.5c18.3,0,26.9,6.2,36.9,13.5c10.3,7.4,22,15.8,44.3,15.8h0.2v89.6
	c0,2.7-1.1,5.3-3,7.1c-1.9,1.9-4.6,2.9-7.3,2.9c-5.6-0.2-10-5-9.8-10.7v-10.3c0-11.4-9.2-20.6-20.6-20.6h-1.8
	c-11.4,0-20.6,9.2-20.6,20.6c0,9.6-7.7,17.4-17.4,17.4c-9.7,0-17.4-7.7-17.4-17.4V364c0-3.5-2.8-6.3-6.3-6.3c-3.5,0-6.3,2.8-6.3,6.3
	v80.3c0,16.6,13.5,30,30,30s30-13.5,30-30c0-4.4,3.6-8.1,8.1-8.1h1.8c4.4,0,8.1,3.6,8.1,8.1v10.3c0,12.6,10,22.9,22.2,23.2h0.5
	c12.5,0,22.7-10.2,22.7-22.7L425.4,364.4L425.4,364.4z M22,306.3h455.9c5.2,0,9.4,4.2,9.4,9.4c0,4.4-3.2,8.3-7.5,9.1
	c-7,1.3-13.8,3.9-19.9,7.5c-3.9,2.2-7.3,4.7-10.5,7.1c-10,7.1-18.6,13.5-36.9,13.5c-18.3,0-26.9-6.2-36.9-13.5
	c-10.3-7.4-22-15.8-44.3-15.8s-34.3,8.3-45,15.7c-10.2,7-19,13.1-36.4,13.5h-1.2c-17.3-0.4-25.8-6.3-35.5-13.3
	c-10.3-7.4-22-15.8-44.4-15.8s-34,8.4-44.3,15.8c-10.1,7.1-18.6,13.5-36.9,13.5s-26.9-6.2-36.9-13.5c-3.3-2.3-6.8-4.8-10.5-7.1
	c-6.1-3.6-12.9-6.2-19.9-7.5c-4.3-0.8-7.5-4.7-7.5-9.1C12.6,310.6,16.9,306.3,22,306.3z"/>
<path class="svg__burger-bottom" d="M49.7,208.1c0.9,0.5,2,0.8,3,0.8c2.3,0,4.4-1.3,5.5-3.3l1.8-3.2c1.8-3,0.7-6.9-2.3-8.7c-3-1.8-6.9-0.7-8.7,2.3
	l-2,3.5C45.6,202.6,46.6,206.4,49.7,208.1z M253.7,169.1c3.5,0,6.3-2.8,6.3-6.3c0-3.5-2.8-6.3-6.3-6.3h-6.9c-3.5,0-6.3,2.8-6.3,6.3
	c0,3.5,2.8,6.3,6.3,6.3H253.7z M213.2,229.6c3.5,0,6.3-2.8,6.3-6.3c0-3.5-2.8-6.3-6.3-6.3h-6.9c-3.5,0-6.3,2.8-6.3,6.3
	c0,3.5,2.8,6.3,6.3,6.3H213.2z M294.1,229.6c3.5,0,6.3-2.8,6.3-6.3c0-3.5-2.8-6.3-6.3-6.3h-6.9c-3.5,0-6.3,2.8-6.3,6.3
	c0,3.5,2.8,6.3,6.3,6.3H294.1z M334.5,169.1c3.5,0,6.3-2.8,6.3-6.3c0-3.5-2.8-6.3-6.3-6.3h-6.9c-3.5,0-6.3,2.8-6.3,6.3
	c0,3.5,2.8,6.3,6.3,6.3H334.5z M375,229.6c3.5,0,6.3-2.8,6.3-6.3c0-3.5-2.8-6.3-6.3-6.3h-6.9c-3.5,0-6.3,2.8-6.3,6.3
	c0,3.5,2.8,6.3,6.3,6.3H375z M172.7,169.1c3.5,0,6.3-2.8,6.3-6.3c0-3.5-2.8-6.3-6.3-6.3h-6.9c-3.5,0-6.3,2.8-6.3,6.3
	c0,3.5,2.8,6.3,6.3,6.3H172.7z M132.1,229.6c3.5,0,6.3-2.8,6.3-6.3c0-3.5-2.8-6.3-6.3-6.3h-6.9c-3.5,0-6.3,2.8-6.3,6.3
	c0,3.5,2.8,6.3,6.3,6.3H132.1z M471.3,279.3H28.7v-12.6c0.6-13.3,2.8-26.6,6.8-39.3l0.1-0.4c1.2-3.3,4.7-5,8-4c3.3,1.2,5,4.7,4,8
	c-3.6,11.6-5.6,23.5-6.2,35.6h417.3c-3.5-75.3-65.6-134.6-141-134.8H182.3c-41.2,0-80.3,17.9-107.1,49.2c-0.1,0.1-0.2,0.4-0.5,0.5
	c-2.3,2.6-6.4,2.7-8.9,0.2c-2.6-2.3-2.7-6.4-0.2-8.9c29.2-34.1,71.8-53.6,116.6-53.6h135.5c82.7,0,150.2,65.6,153.6,147.4V279.3z"/>
  </symbol>
</svg>