<svg xmlns="http://www.w3.org/2000/svg" viewBox="0 0 512 512" enable-background="new 0 0 512 512"><path fill="#fff" d="M85.338 221.867c-18.825 0-34.133 15.317-34.133 34.133 0 18.825 15.309 34.133 34.133 34.133 18.825 0 34.133-15.309 34.133-34.133 0-18.816-15.309-34.133-34.133-34.133zm0 51.2c-9.412 0-17.067-7.646-17.067-17.067 0-9.412 7.654-17.067 17.067-17.067 9.404 0 17.067 7.654 17.067 17.067 0 9.421-7.663 17.067-17.067 17.067zM346.082 358.63c-14.293 0-27.187 9.02-32.085 22.468-6.434 17.681 2.714 37.299 20.395 43.742 3.772 1.365 7.697 2.065 11.682 2.065 14.293 0 27.187-9.028 32.068-22.468 6.434-17.681-2.714-37.308-20.395-43.742-3.771-1.373-7.697-2.065-11.665-2.065zm16.026 39.971c-3.123 8.593-13.167 13.355-21.88 10.206-8.841-3.226-13.414-13.039-10.197-21.871 2.449-6.724 8.9-11.238 16.051-11.238 1.98 0 3.934.35 5.828 1.033 8.841 3.216 13.415 13.029 10.198 21.87zM392.768 298.607c14.302 0 27.196-9.028 32.077-22.468 6.434-17.681-2.714-37.308-20.403-43.75-3.763-1.365-7.689-2.057-11.665-2.057-14.302 0-27.196 9.028-32.085 22.468-6.434 17.681 2.722 37.308 20.403 43.742 3.763 1.365 7.688 2.065 11.673 2.065zm-16.042-39.979c2.449-6.716 8.9-11.23 16.051-11.23 1.988 0 3.942.35 5.837 1.033 8.841 3.217 13.414 13.03 10.197 21.871-3.123 8.593-13.167 13.38-21.879 10.197-8.841-3.217-13.423-13.022-10.206-21.871zM341.338 298.667v-256c0-23.518-19.14-42.667-42.667-42.667h-256c-23.526 0-42.666 19.149-42.666 42.667v256c0 23.526 19.14 42.667 42.667 42.667h256c23.526-.001 42.666-19.141 42.666-42.667zm-324.267 0v-256c0-14.114 11.486-25.6 25.6-25.6h256c14.114 0 25.6 11.486 25.6 25.6v256c0 14.123-11.486 25.6-25.6 25.6h-256c-14.114 0-25.6-11.478-25.6-25.6zM85.338 51.2c-18.825 0-34.133 15.317-34.133 34.133 0 18.825 15.309 34.133 34.133 34.133 18.825 0 34.133-15.309 34.133-34.133 0-18.816-15.309-34.133-34.133-34.133zm0 51.2c-9.412 0-17.067-7.646-17.067-17.067 0-9.412 7.654-17.067 17.067-17.067 9.404 0 17.067 7.654 17.067 17.067 0 9.421-7.663 17.067-17.067 17.067zM483.921 188.672l-122.726-44.672c-4.42-1.596-9.327.674-10.931 5.103-1.621 4.429.666 9.327 5.094 10.94l122.726 44.663c13.261 4.83 20.13 19.55 15.3 32.811l-87.56 240.563c-4.821 13.269-19.55 20.13-32.811 15.309l-240.563-87.561c-13.252-4.83-20.122-19.55-15.3-32.819l3.994-10.974c1.621-4.429-.674-9.327-5.094-10.931-4.463-1.604-9.327.674-10.94 5.103l-3.994 10.965c-8.047 22.11 3.396 46.643 25.506 54.69l240.555 87.561c4.804 1.741 9.711 2.577 14.541 2.577 17.434-.008 33.843-10.778 40.141-28.083l87.561-240.563c8.046-22.11-3.389-46.635-25.499-54.682zM232.632 354.287c-4.087 7.407-12.757 10.701-20.702 7.825-4.83-1.758-7.561-5.231-9.003-7.842-2.278-4.122-7.475-5.606-11.597-3.337-4.13 2.287-5.615 7.475-3.337 11.605 4.036 7.279 10.462 12.826 18.099 15.607 3.866 1.408 7.817 2.082 11.716 2.082 12.092 0 23.578-6.494 29.773-17.707 2.27-4.122.768-9.31-3.354-11.588-4.137-2.277-9.325-.775-11.595 3.355zM170.671 136.533c-18.825 0-34.133 15.317-34.133 34.133 0 18.825 15.309 34.133 34.133 34.133s34.133-15.309 34.133-34.133c.001-18.815-15.308-34.133-34.133-34.133zm0 51.2c-9.412 0-17.067-7.646-17.067-17.067 0-9.412 7.654-17.067 17.067-17.067 9.404 0 17.067 7.654 17.067 17.067 0 9.421-7.663 17.067-17.067 17.067zM256.005 221.867c-18.825 0-34.133 15.317-34.133 34.133 0 18.825 15.309 34.133 34.133 34.133s34.133-15.309 34.133-34.133c0-18.816-15.309-34.133-34.133-34.133zm0 51.2c-9.412 0-17.067-7.646-17.067-17.067 0-9.412 7.654-17.067 17.067-17.067 9.404 0 17.067 7.654 17.067 17.067-.001 9.421-7.664 17.067-17.067 17.067zM256.005 51.2c-18.825 0-34.133 15.317-34.133 34.133 0 18.825 15.309 34.133 34.133 34.133s34.133-15.309 34.133-34.133c0-18.816-15.309-34.133-34.133-34.133zm0 51.2c-9.412 0-17.067-7.646-17.067-17.067 0-9.412 7.654-17.067 17.067-17.067 9.404 0 17.067 7.654 17.067 17.067-.001 9.421-7.664 17.067-17.067 17.067z"/></svg>